
        <svg xmlns="http://www.w3.org/2000/svg" xmlns:xlink="http://www.w3.org/1999/xlink" version="1.1" width="2306.3391691042143" height="3131.790809663098" viewBox="0 0 2306.3391691042143 3131.790809663098">
			
			<g transform="scale(6.589540483154898) translate(10, 10)">
				<defs id="SvgjsDefs7911"/><g id="SvgjsG7912" featureKey="j5pGhi-0" transform="matrix(17.55777359008789,0,0,17.55777359008789,52.0644196056806,-127.8205966140595)" fill="#fff"><path d="M13.82 7.300000000000001 c0 -0.02 0.02 -0.02 0.04 -0.02 c0 0.02 -0.04 0.02 -0.04 0.02 z M12.96 7.300000000000001 c0.04 0.02 -0.04 0.08 -0.08 0.06 c-0.04 -0.08 0.08 0 0.08 -0.06 z M12.62 7.32 c0.06 0 0.1 0.06 0.06 0.08 c-0.02 -0.02 -0.06 -0.02 -0.06 -0.08 z M14.64 7.34 c0.04 -0.08 0 0.16 0 0 l0 0 z M14.82 7.34 c0.04 0 0.04 0.04 0.08 0.02 c0 0.04 -0.12 0.04 -0.08 -0.02 z M15.3 7.539999999999999 c0 0.02 0.02 0.02 0.04 0.02 c0 -0.06 -0.02 -0.02 -0.04 -0.02 c-0.02 -0.06 -0.08 -0.08 -0.08 -0.14 c0.08 0.04 0.22 0.02 0.22 0.14 c0.04 0 0.04 -0.04 0.04 -0.08 c0.16 0.06 0.24 0.2 0.26 0.42 c-0.1 0.22 0.14 0.34 0.08 0.54 c-0.1 0.04 -0.02 -0.08 -0.08 -0.08 c-0.08 0.04 0.02 0.12 0 0.2 c-0.24 0.16 -0.52 0.3 -0.8 0.42 c-0.02 0 -0.02 0 -0.02 0.02 c-0.68 0.12 -1.26 0.26 -1.96 0.36 c-0.08 -0.02 0.02 -0.1 0.02 -0.14 c-0.08 0 -0.32 0.04 -0.34 -0.1 c-0.06 0.08 -0.14 -0.02 -0.14 0.12 c0 -0.04 -0.08 -0.04 -0.08 -0.12 c0.08 -0.04 0.14 0.02 0.2 -0.04 c-0.32 -0.02 -0.7 0.14 -1.06 0.18 c0 -0.04 0 -0.06 -0.02 -0.08 c0 0.06 -0.36 0.16 -0.48 0.04 c0.64 -0.2 1.26 -0.3 1.82 -0.42 c0.06 -0.04 0.1 -0.1 0.1 -0.18 c0.04 0.02 0.04 -0.02 0.1 -0.02 c0 0.06 -0.1 0.06 -0.1 0.14 c0.04 0.02 0.12 0 0.24 0 l0 -0.08 c0 -0.04 -0.06 -0.02 -0.1 -0.02 c0 -0.08 0.1 -0.06 0.14 -0.08 c0.04 0.04 -0.02 0.04 0 0.1 c0 0.06 0.1 0.02 0.14 0.02 s0 -0.06 0.04 -0.08 c0.02 -0.04 -0.08 0.02 -0.1 0.02 c-0.06 -0.14 0.22 -0.12 0.34 -0.16 c-0.04 0.1 -0.18 0.08 -0.2 0.16 c0.1 0.02 0.22 -0.1 0.34 -0.04 c0.06 -0.02 0.02 -0.18 0.12 -0.18 c0 0.06 -0.06 0.04 -0.04 0.12 c0.08 0.02 0.06 -0.06 0.06 -0.12 c0.28 0.04 0.54 -0.14 0.8 -0.2 c0 -0.06 -0.1 -0.02 -0.06 -0.08 c-0.04 0 -0.04 0.04 -0.04 0.06 c-0.2 -0.04 -0.38 -0.04 -0.56 -0.04 c-0.06 0 -0.02 -0.12 -0.14 -0.1 c-0.06 0.02 0.02 0.06 0 0.1 c-0.06 0.02 -0.12 0 -0.14 -0.06 c-0.06 -0.02 -0.08 0.02 -0.08 0.06 c-0.04 0 -0.04 -0.04 -0.06 -0.04 c0.02 0.04 -0.06 0.04 -0.16 0.04 c-0.02 0 -0.04 -0.04 -0.02 -0.1 c-0.04 0.02 -0.04 0.04 -0.04 0.06 c-0.02 0 -0.04 -0.02 -0.04 -0.06 c-0.06 0.02 -0.04 0.08 -0.08 0.1 c-0.08 -0.12 -0.16 -0.04 -0.28 -0.04 c0 0.04 0.06 0.02 0.04 0.04 c-0.08 0 -0.06 -0.1 -0.16 -0.06 c-0.04 0.06 0.04 0.02 0.06 0.06 c0 0.06 -0.14 0.02 -0.22 0.04 c-0.02 -0.06 0.06 -0.04 0.08 -0.06 c-0.12 -0.04 -0.36 -0.08 -0.42 0.06 c-0.08 -0.04 -0.12 0.02 -0.18 0.04 c-0.06 -0.02 -0.08 -0.08 -0.14 -0.1 c-0.46 0 -1.04 0.2 -1.44 0.08 c-0.02 0.04 -0.06 0.08 -0.1 0.12 c-0.28 -0.04 -0.54 0.1 -0.8 0.04 c0.02 -0.06 0 -0.08 -0.02 -0.12 l-0.12 0 s-0.02 0.1 -0.02 0.14 c0.06 0 0.06 -0.04 0.06 -0.08 c0.06 0 0.02 0.08 0.1 0.06 c-0.2 0.08 -0.42 0.12 -0.64 0.1 c0 -0.08 0 -0.08 0.08 -0.06 c0 -0.04 -0.02 -0.04 -0.02 -0.08 c-0.06 0 -0.04 0.06 -0.12 0.04 c0 -0.08 -0.04 -0.14 0.02 -0.22 c0.04 0 -0.02 0.12 0.04 0.1 c0.1 0.04 0 -0.14 0.08 -0.1 c-0.02 0.06 -0.04 0.1 0.08 0.08 c-0.06 -0.04 0.18 -0.18 0.16 -0.04 c0.06 -0.04 0.08 -0.14 0.18 -0.1 c0.04 0.04 -0.02 0.04 0.02 0.06 c0.14 0.02 0.14 0 0.24 -0.02 c0.02 -0.06 -0.08 0.02 -0.04 -0.08 c0.02 0 0.04 0.04 0.04 0 c0.04 0.02 0.02 0.06 0.04 0.1 c0.06 -0.02 0.1 -0.04 0.14 0 c0.04 -0.04 0.12 -0.08 0.08 -0.22 c0.14 0.04 0.12 0.08 0.18 0.06 c0 0.06 -0.02 0.1 0 0.14 c0.06 -0.04 0.16 -0.04 0.1 -0.14 c0.08 0.02 0.06 -0.04 0.12 -0.02 c0 0.08 -0.02 0.08 0.02 0.14 c0.06 0.02 0.04 -0.06 0.08 -0.06 c0.02 -0.06 -0.06 -0.04 -0.04 -0.12 c0.04 0.02 0.06 -0.02 0.04 -0.04 c0.04 0.06 0.06 0.1 0.08 0.16 c0.12 0.04 0.08 -0.14 0.12 -0.16 c0.02 0.02 0.12 0.06 0.04 0.1 c0 0.04 0.06 0.04 0.12 0.04 c0 -0.04 0 -0.08 -0.04 -0.1 c-0.02 -0.04 0.1 0.02 0.08 -0.02 c0.06 0.02 0 0.08 0 0.12 l0.04 0 c0.06 -0.04 0.02 -0.06 0.02 -0.12 c0.02 0 0.06 0 0.06 -0.02 c0.06 0 0.04 0.06 0.04 0.12 c0.08 -0.08 0.16 -0.18 0.32 -0.12 c0 0.08 0.08 0 0 0 c0 -0.04 0 -0.06 0.06 -0.06 c-0.02 0.08 0.02 0.12 0.06 0.14 c0.08 -0.04 -0.04 -0.08 0.02 -0.1 c0.04 0.04 0.28 0.08 0.28 -0.06 c0.04 0.02 0.04 0.06 0.06 0.1 c0.1 0 0.26 -0.1 0.28 0 c0.04 0 0.02 -0.06 0.02 -0.1 s-0.06 -0.02 -0.08 -0.02 c0.02 -0.08 0 -0.12 -0.02 -0.14 c0.04 -0.02 0.06 0.04 0.04 0.06 c0.06 0.04 0.04 -0.04 0.04 -0.06 c0.04 0.02 0.04 0.1 0.14 0.06 c0.02 0.1 -0.08 0.06 -0.1 0.12 c0 0.08 0.18 0.06 0.18 -0.02 c0.12 0.1 0.18 0 0.34 0 c0 -0.04 0.04 -0.12 0.12 -0.14 c0 0.06 -0.02 0.08 -0.04 0.12 c0.02 0.12 0.12 0.02 0.18 0.08 c0 -0.02 0 -0.06 -0.02 -0.06 c0.12 -0.06 0.26 0 0.4 0 c0.1 0 0.16 -0.06 0.24 -0.06 c0.14 0 0.2 0.04 0.3 0.02 c0.3 -0.06 0.6 0.16 0.82 0.02 c0.04 0.08 0.1 0.06 0.14 0.08 c0.1 -0.02 0.02 -0.18 0.12 -0.1 c-0.02 -0.08 -0.14 -0.04 -0.06 -0.12 c0 -0.04 -0.04 -0.04 -0.08 -0.04 c-0.02 0.02 0 0.16 -0.08 0.16 c0 -0.04 0 -0.08 -0.02 -0.1 c0.1 -0.02 0.02 -0.12 0.04 -0.18 c0.04 -0.02 0.16 0.1 0.16 -0.02 c0 -0.04 -0.04 0.04 -0.1 0 c0 -0.04 -0.02 -0.04 -0.02 -0.08 c0.12 0.02 0.14 0.02 0.22 0.04 c-0.02 0.04 -0.06 0.04 -0.08 0.1 c0.02 0.08 0.12 0.04 0.2 0.04 z M15.4 7.58 c0.04 0.06 0.06 -0.08 0 0 l0 0 z M15.2 7.66 c0.02 -0.06 -0.06 -0.02 -0.08 -0.04 c0 0.04 0.04 0.04 0.08 0.04 z M15.4 7.880000000000001 c0.06 0.02 0.06 -0.1 0 -0.08 l0 0.08 z M13.56 7.880000000000001 l-0.12 0 c-0.02 0.08 0.12 0.08 0.12 0 z M12.6 7.9399999999999995 c0.02 0.08 0.02 -0.08 0 0 l0 0 z M12.72 7.9399999999999995 c-0.04 0.08 0.14 0.02 0.14 -0.04 c-0.06 0 -0.12 0 -0.14 0.04 z M13.22 7.9399999999999995 c0.02 0 0 -0.02 0 0 l0 0 z M11.86 8 l0.04 0 c0.04 -0.06 -0.08 -0.06 -0.06 -0.02 c0 0 0.02 0 0.02 0.02 z M10.74 8.16 c0 -0.04 -0.02 -0.04 -0.06 -0.06 c0 0.02 0 0.06 0.06 0.06 z M9.52 8.18 c0.04 0 0.06 0 0.1 0.02 l0 -0.08 l-0.08 0 c0 0.02 -0.02 0.04 -0.02 0.06 z M10.4 8.16 c0.02 0.08 0.06 -0.08 0 0 l0 0 z M10.86 8.18 l0.04 0 l0 -0.06 l-0.04 0 l0 0.06 z M10.62 8.2 c0.02 0.02 -0.02 0 0 0 l0 0 z M9.96 8.22 c0.02 0.02 -0.02 0 0 0 l0 0 z M14.72 8.42 c0.16 0.04 0.3 -0.08 0.46 -0.1 c0 -0.06 0 -0.08 -0.04 -0.1 c-0.14 0.08 -0.3 0.12 -0.42 0.2 z M9.52 8.34 c0.02 0.02 -0.02 0 0 0 l0 0 z M9.4 8.36 c-0.02 0 -0.04 0 -0.04 0.02 c0.02 -0.02 0.04 0 0.04 -0.02 z M14.66 8.44 c-0.04 -0.04 -0.04 0.08 0 0.08 l0 -0.08 c0.04 -0.02 0 -0.02 0 0 z M13.86 8.78 c0.02 0.02 -0.02 0 0 0 l0 0 z M12.66 9.06 c0.08 -0.04 0.08 0 0.1 0.02 c0.02 -0.12 0.16 0 0.2 -0.12 c-0.14 0.06 -0.22 -0.02 -0.3 0.1 z M13.3 9.1 l0.04 0 l0 -0.02 l-0.04 0 l0 0.02 z M12.9 9.12 c0.06 0.1 0.04 -0.06 0 0 l0 0 z M11.66 7.4 c0.02 0.08 -0.08 0 -0.1 0.04 c-0.06 -0.04 0.06 -0.04 0.1 -0.04 z M11.78 7.4 c0.02 -0.08 0.02 0.1 0 0 l0 0 z M13.18 7.4 c0.04 0.06 0.08 -0.02 0.14 0.02 c0.04 0.12 -0.1 0.04 -0.12 0.1 c-0.06 -0.04 -0.04 -0.06 -0.02 -0.12 z M13.44 7.4 c0.02 0 0.04 0.04 0.04 0.1 c-0.06 -0.02 -0.06 -0.02 -0.14 0 c-0.02 -0.1 0.12 -0.02 0.1 -0.1 z M14.84 7.619999999999999 l-0.02 0 c-0.02 0.02 0 0.02 0.02 0.02 c-0.02 0.04 0.02 0.06 0.02 0.1 c-0.06 -0.04 -0.3 0.06 -0.32 -0.08 c0.04 0 0.08 0 0.08 -0.02 c0.04 0 0.04 0.04 0.1 0.02 c0.06 -0.04 -0.06 -0.04 -0.02 -0.14 c-0.28 -0.02 -0.56 -0.04 -0.84 -0.08 c-0.06 0.1 0.04 0.06 0.02 0.18 c-0.06 -0.02 -0.06 -0.1 -0.1 -0.16 c-0.12 0 -0.18 0.1 -0.28 -0.02 c0.4 -0.04 0.82 -0.04 1.38 0.02 c0.02 0.1 -0.08 0.06 -0.04 0.16 z M12.74 7.4399999999999995 c-0.14 0.08 -0.34 0.12 -0.44 0.02 c0.16 0 0.3 0 0.44 -0.02 z M11.42 7.460000000000001 c0 -0.02 0.02 -0.02 0.04 -0.02 c0 0.02 -0.02 0.02 -0.04 0.02 z M12.82 7.460000000000001 c0 -0.06 0.06 0.06 0.06 -0.02 c0.08 0.04 -0.06 0.08 -0.06 0.02 z M13.04 7.460000000000001 c0.08 -0.06 0.12 0.08 0 0 l0 0 z M11 7.5 l0 0 c0.02 0 0 -0.02 0 0 z M11.06 7.5 c0 -0.04 0 -0.02 0.02 -0.04 c0 0.04 -0.02 0.02 -0.02 0.04 z M12.28 7.5 c-0.08 0.14 -0.34 -0.06 -0.38 0.14 c-0.02 0 -0.02 -0.04 -0.02 -0.08 c-0.12 0.02 -0.12 0.02 -0.26 0.02 c0.1 -0.12 0.48 -0.06 0.66 -0.08 z M12.82 7.460000000000001 c0 0.04 -0.04 0.02 0 0 l0 0 z M13.38 7.52 c0.06 0 0 0.14 0.12 0.12 c0 0.12 -0.1 0.06 -0.16 0.04 c0.04 -0.06 0.04 -0.04 0.04 -0.16 z M10.44 7.5600000000000005 l0 0 c0.02 0.02 0 0 0 0 z M11.44 7.539999999999999 c0.04 0.02 0 0.04 0 0.08 c-0.04 -0.02 0 -0.06 0 -0.08 z M11.5 7.5600000000000005 c0 -0.06 0.06 0 0.04 0.06 l-0.04 0 c0 -0.02 0.02 -0.06 0 -0.06 z M13.62 7.5600000000000005 l0 0 c0.02 0.02 -0.02 0 0 0 z M11.32 7.58 c0.04 -0.08 0.06 0.08 0 0 l0 0 z M13.26 7.5600000000000005 c-0.02 0.04 -0.04 0.06 -0.06 0.06 c0 -0.04 0.02 -0.06 0.06 -0.06 z M13.96 7.58 c0 0 0.04 -0.04 0.08 -0.02 c0.04 0.04 -0.1 0.1 -0.08 0.02 z M14.4 7.640000000000001 c0 0.04 -0.02 0.06 -0.02 0.08 c-0.08 -0.04 -0.18 -0.04 -0.26 -0.04 c0.04 -0.04 0 -0.04 0 -0.12 c0.06 0 0.08 0.06 0.14 0.08 c0.04 0 0 -0.06 0.04 -0.08 c0.1 -0.04 0 0.12 0.1 0.08 z M14.4 7.640000000000001 c0 -0.02 -0.04 -0.02 -0.02 -0.06 c0.06 -0.06 0.14 0.04 0.12 0.14 c-0.08 0.02 -0.04 -0.08 -0.1 -0.08 z M14.62 7.640000000000001 l-0.08 0 c0 -0.04 0.02 -0.06 0.02 -0.08 l0.06 0 l0 0.08 z M11.02 7.58 l0.04 0.04 l0 0.02 l-0.06 0 c0 -0.02 0.02 -0.02 0.02 -0.06 z M11.2 7.619999999999999 c0 -0.04 0.12 -0.06 0.1 0.02 c-0.04 0 -0.06 -0.04 -0.1 -0.02 z M12.84 7.619999999999999 l0 0 c0.02 0 -0.02 -0.02 0 0 z M13 7.58 c0.06 0.02 0.1 0.06 0.12 0.06 c0.02 0.08 -0.04 0.04 -0.04 0 c-0.02 0 -0.02 0.04 -0.02 0.08 c-0.04 0.06 -0.02 -0.1 -0.06 -0.14 z M14.84 7.619999999999999 c0.02 0 0.04 0.02 0.04 0.02 l-0.04 0 l0 -0.02 z M10.9 7.640000000000001 c0.04 -0.08 0.04 0.1 0 0 l0 0 z M13.26 7.640000000000001 l0.04 0 c0 0.02 -0.02 0.02 -0.02 0.04 c-0.02 0 -0.02 -0.02 -0.06 -0.02 c0.02 -0.02 0.04 -0.02 0.04 -0.02 z M13.9 7.640000000000001 c0.04 -0.08 0.04 0.1 0 0 l0 0 z M14.08 7.640000000000001 c0.02 -0.08 0.02 0.1 0 0 l0 0 z M9.52 7.66 l0 0 c0.02 0.02 -0.02 0 0 0 z M10.68 7.66 l0 0 c0.02 0.02 0 0 0 0 z M13.72 7.640000000000001 c0.06 0 0.08 0 0.12 0.02 c0 0.04 -0.14 0.06 -0.12 -0.02 z M10.38 7.68 c0 0.08 -0.08 0.06 -0.04 0.16 c-0.08 -0.08 -0.18 -0.06 -0.26 -0.08 c0.02 -0.04 0.02 -0.08 0.08 -0.08 c0.02 0.12 0.14 -0.04 0.22 0 z M10.42 7.66 l0.04 0 l0 0.06 l-0.04 0 l0 -0.06 z M10.62 7.68 l0 0 c0.02 0.02 -0.02 0 0 0 z M11.28 7.66 c0.06 -0.02 0.06 0.14 0 0.12 l0 -0.12 z M11.74 7.68 l0 0 c0.02 0.02 -0.02 0 0 0 z M9.38 7.720000000000001 l0 0 l0 0 z M10.74 7.68 c0.06 0.02 0.04 0.08 0.02 0.1 c-0.04 0 -0.02 -0.06 -0.02 -0.1 z M11.38 7.68 c0.06 -0.02 0.04 0.06 0.04 0.1 c-0.04 0 -0.06 -0.04 -0.04 -0.1 z M11.96 7.779999999999999 c-0.1 -0.02 -0.14 0.06 -0.18 0 c-0.02 -0.06 0.04 -0.04 0.04 -0.1 c0.02 0.06 0.08 0.08 0.14 0.1 z M12.16 7.720000000000001 c-0.04 0.02 -0.04 0.06 -0.1 0.06 c-0.02 -0.06 0.04 -0.06 0.1 -0.06 z M14.98 7.74 c0.04 -0.1 0.04 0.1 0 0 l0 0 z M9.24 7.76 l0 0 c0.02 0.02 0 0 0 0 z M9.94 7.74 c0.04 -0.02 0.02 0.1 -0.04 0.06 l0 -0.04 c0.02 0 0.02 0 0.04 -0.02 z M9.76 7.779999999999999 l0 0.08 c-0.08 -0.08 -0.08 0.02 -0.18 -0.02 c-0.04 -0.02 0.1 -0.06 0.14 -0.08 c0 0.02 0.02 0.02 0.04 0.02 z M9.76 7.779999999999999 l0 0 c0.04 -0.02 0 -0.02 0 0 z M9.84 7.779999999999999 c0.02 -0.1 0.02 0.1 0 0 l0 0 z M11.08 7.76 c0.1 0.02 -0.02 0.12 0 0 l0 0 z M9.46 7.84 c0.04 -0.1 0.04 0.06 0 0 l0 0 z M10.5 7.800000000000001 c0.02 0.02 0 0.06 0.04 0.06 c-0.02 0.04 -0.08 0 -0.04 -0.06 z M9.28 7.859999999999999 c-0.04 0 -0.02 -0.04 0 0 l0 0 z M9.38 7.859999999999999 c0 -0.02 0.02 -0.02 0.04 -0.02 c0 0.02 -0.04 0.02 -0.04 0.02 z M9.16 7.859999999999999 c0.08 0.04 -0.06 0.06 0 0 l0 0 z M9.28 7.859999999999999 c0.02 0 0.04 0 0.04 0.02 l-0.04 0 l0 -0.02 z M10.6 7.880000000000001 c0.06 -0.1 0.02 0.06 0 0 l0 0 z M10.44 7.880000000000001 c0.04 -0.08 0.04 0.1 0 0 l0 0 z M8.94 7.9 l0 0 c0 0.02 -0.02 0 0 0 z M8.86 7.9399999999999995 c-0.04 0 -0.02 -0.04 0 0 l0 0 z M8.68 7.9399999999999995 c0.04 0.06 -0.02 0.04 -0.06 0.04 c0 -0.04 0.04 -0.06 0.06 -0.04 z M8.86 7.9399999999999995 c0.08 -0.04 0 0.06 0 0 l0 0 z M8.52 7.98 l0 0 c0.02 -0.02 0 -0.02 0 0 z M8.52 7.98 c-0.02 0.08 -0.1 -0.02 0 0 l0 0 z M8.9 7.98 l0.06 0 l0 0.08 l-0.06 0 l0 -0.08 z M7.46 8.02 c0.02 -0.08 0.02 0.1 0 0 l0 0 z M10 8.02 c0.08 -0.04 -0.06 0.08 0 0 l0 0 z M8.1 8.02 l0.04 0 l0 0.08 l-0.06 0 l0 -0.04 c0.02 0 0.02 -0.02 0.02 -0.04 z M9.36 8.06 l0 0 c0.02 0 0 -0.02 0 0 z M9.78 8.06 c0 -0.04 0.04 -0.02 0.06 -0.04 c-0.02 0.04 -0.04 0.02 -0.06 0.04 z M7.9 8.06 c0.02 0 0.02 0.04 0.04 0.04 c0 0.04 -0.06 0 -0.04 -0.04 z M8 8.06 c0.06 0 0.06 0.04 0.02 0.06 l-0.04 0 l0 -0.04 c0.02 0 0.02 -0.02 0.02 -0.02 z M9.72 8.1 l0 0 c0 0.02 -0.02 0 0 0 z M13.46 8.08 c0.08 0.04 -0.08 0.06 0 0 l0 0 z M7.68 8.12 l0 0 c-0.02 0.12 0.02 -0.1 0 0 z M6.86 8.12 c0.1 0 -0.04 0.12 0 0 l0 0 z M7.46 8.12 c0.1 0.1 -0.1 0.08 0 0 l0 0 z M7.76 8.12 l0.04 0 l-0.04 0 z M8.42 8.12 c0.06 -0.06 0.04 0.08 0 0 l0 0 z M13.2 8.12 l0 0 c0.02 0.02 -0.02 0 0 0 z M8.2 8.16 c-0.08 0 -0.06 0.12 -0.18 0.12 c0.02 -0.04 0.04 -0.08 0.04 -0.12 c0.04 0.06 0.08 -0.06 0.14 0 z M8.74 8.16 c0.02 -0.02 0.04 0 0.04 -0.04 c-0.02 0.02 -0.04 0 -0.04 0.04 z M8.36 8.2 l0 0 c0.02 0.02 0 0 0 0 z M3.62 18.98 l0 -0.02 c-0.02 0 0 0.02 0 0.02 c-0.02 0.34 -0.18 0.56 -0.22 0.78 c-0.06 0.36 -0.14 0.6 -0.22 0.86 c-0.14 0.46 -0.32 0.96 -0.42 1.4 c-0.06 0.2 -0.2 0.4 -0.28 0.6 c-0.08 0.3 -0.24 0.82 -0.28 1 c-0.04 0.3 -0.3 0.84 -0.34 1.12 c-0.04 0.02 -0.08 0 -0.08 0.04 c-0.08 0 -0.06 -0.06 -0.08 -0.1 c-0.1 0.12 -0.2 -0.08 -0.24 0 c-0.14 -0.04 -0.12 -0.22 -0.16 -0.32 c-0.08 0 -0.04 0.1 -0.08 0.12 c-0.1 -0.1 -0.04 -0.36 -0.14 -0.46 c0.2 -0.16 0.2 -0.54 0.38 -0.74 c0.16 -0.74 0.46 -1.24 0.56 -2.04 c0.48 -1.64 0.72 -3.46 0.76 -5.42 c0 -0.42 -0.02 -0.68 0.02 -0.98 c-0.12 -0.24 -0.06 -0.66 -0.16 -0.92 l0 -0.08 c-0.04 -0.02 -0.04 0.08 0 0.08 c-0.04 0.2 0.08 0.34 0.02 0.52 c-0.14 -0.58 -0.24 -1.22 -0.48 -1.76 c-0.32 -0.76 -0.86 -1.4 -1.8 -1.58 c-0.32 0.06 -0.54 -0.12 -0.82 -0.06 c-0.02 -0.04 -0.08 -0.04 -0.1 -0.06 c-0.4 0.1 -0.64 0.28 -1.04 0.42 c-0.06 0 -0.02 0.08 -0.06 0.1 s-0.02 -0.04 -0.08 -0.04 c-0.24 0.26 -0.8 0.44 -1.14 0.18 c-0.02 -0.14 0 -0.34 -0.1 -0.4 c-0.02 -0.18 0.02 -0.3 0.06 -0.46 c0.46 -0.28 1.1 -0.44 1.54 -0.78 c0.18 0.06 0.62 -0.2 0.68 0.08 c0.2 -0.04 0.34 -0.12 0.5 -0.18 c0 0.04 0 0.06 -0.02 0.08 c0.04 -0.02 0.26 -0.1 0.3 -0.14 c0.04 0 0.08 0.02 0.06 0.06 c0.06 -0.02 0.08 -0.08 0.1 -0.12 c0.12 0.04 0.06 0 0.18 -0.04 c0.02 0.06 -0.04 0.06 -0.02 0.1 c0.08 -0.04 0.22 -0.02 0.3 -0.1 c0.5 -0.08 0.82 -0.32 1.24 -0.3 c0.02 -0.02 0.04 -0.06 0.04 -0.12 c0.2 0.1 0.4 -0.12 0.56 -0.04 c-0.14 0.12 -0.24 0.06 -0.34 0.18 c0 0.1 0.16 -0.04 0.14 0.1 c-0.1 -0.02 -0.2 -0.02 -0.2 0.1 c-0.02 0 -0.02 -0.04 -0.04 -0.06 c-0.22 0.08 -0.42 0.08 -0.52 0.24 c-0.04 -0.02 -0.1 -0.02 -0.12 -0.06 c-0.02 0.02 -0.06 0.02 -0.04 0.1 c0.1 0.08 0.24 -0.02 0.32 -0.06 c0.04 0 0.02 0.04 0 0.06 l0.06 0 c0.08 -0.02 -0.02 -0.04 0 -0.08 c0.2 0.08 0.36 -0.04 0.56 -0.08 c0 -0.06 -0.1 0 -0.06 -0.1 c0.1 0.02 0.16 0.12 0.16 0.18 c0.1 0 0.12 -0.06 0.18 -0.06 c0 -0.08 -0.1 0.06 -0.12 -0.02 c0 -0.08 0.08 0 0.1 -0.1 c-0.04 -0.04 -0.1 0.02 -0.18 0 c0.02 -0.06 -0.06 -0.06 -0.04 -0.12 c0.02 -0.04 0.04 -0.12 0.12 -0.12 c0 0.02 -0.02 0.02 -0.02 0.04 c0.1 0.02 0 -0.08 0.06 -0.1 c0.08 0 0.08 0.04 0.02 0.08 c0.06 0.02 0.08 -0.02 0.06 -0.08 c0.04 0.06 0.08 0.08 0.16 0.06 c-0.06 0.12 -0.22 0.04 -0.34 0.18 c0.04 0.1 0.1 -0.02 0.18 0 c0 0.06 0.08 0.06 0.04 0.16 c0.06 0 0.06 -0.04 0.1 -0.04 c-0.06 -0.02 -0.02 -0.04 -0.04 -0.06 c0.08 -0.02 0.2 -0.06 0.32 -0.06 c0.02 0 0.06 -0.1 0.02 -0.12 c0.02 -0.06 0.1 -0.04 0.16 -0.06 c0.02 0.04 -0.02 0.04 -0.02 0.08 c0.18 -0.04 0.38 -0.02 0.56 -0.14 c0.06 0 0.04 0.1 0.08 0.1 c0.02 -0.06 0.08 -0.08 0.08 -0.14 c0.02 0.02 0.06 0.02 0.12 0.02 l0 0.08 c0.02 -0.08 0.02 -0.08 0.1 -0.04 c0.02 -0.06 -0.08 -0.04 -0.06 -0.14 c0.06 -0.02 0.08 0.06 0.08 -0.02 c0.06 0 0.02 0.12 0.06 0.14 c0.06 -0.06 0.04 -0.12 0.14 -0.1 c0.02 -0.06 -0.04 -0.06 -0.04 -0.12 c0.08 0.02 0.06 0.12 0.08 0.2 c0 -0.12 0.22 -0.22 0.26 -0.14 c0.1 -0.16 0.32 -0.02 0.4 -0.18 c0.06 0 0.04 0.08 0.12 0.08 c0.04 -0.02 0.02 -0.06 0.02 -0.1 c0.12 0 0.36 -0.02 0.5 -0.1 c0.04 0 0.04 0.1 0.1 0.1 c0 -0.02 -0.06 -0.1 0.02 -0.16 c0.02 -0.02 0.16 0.04 0.1 -0.04 c0.06 -0.1 0 0.12 0.12 0.08 c0 0.02 -0.02 0.02 -0.06 0.02 c-0.02 0.06 0.04 0.04 0.04 0.1 c0.04 -0.1 0.1 -0.12 0.06 -0.24 c0.1 -0.04 0.16 -0.22 0.14 -0.32 c0 -0.04 0 -0.04 0.04 -0.02 c0.02 -0.02 0.06 -0.12 0.02 -0.14 c0.22 0.04 0.64 -0.1 0.9 0.1 c0.04 0.06 0.02 0.18 0.06 0.24 c0.14 -0.04 0.34 0.02 0.38 -0.08 c0.12 0.06 0.28 -0.12 0.3 0.08 c0.12 0 0.22 -0.1 0.32 -0.02 c0.04 -0.06 -0.06 -0.26 -0.04 -0.28 c0.1 -0.02 0.1 0.18 0.18 0.06 c0 0 0.02 0.02 0.04 0.02 c0.06 0 0 -0.14 0.06 -0.16 c0.04 0.04 0.12 0.04 0.1 0.14 c0.04 0 0.08 0 0.12 -0.04 c-0.02 -0.08 -0.08 0.02 -0.1 0 c-0.02 -0.1 0.12 -0.04 0.12 -0.12 c0.08 0.02 0.02 0.04 0.02 0.12 c0.1 0.04 0 -0.14 0.1 -0.1 c-0.04 0.12 0.1 0.16 0.24 0.16 c0.02 0.04 -0.04 0.04 -0.02 0.1 c-0.46 0.08 -1 0.24 -1.4 0.2 c-0.06 0 0 0.12 -0.06 0.08 c0 -0.06 0 -0.1 -0.02 -0.12 c-0.1 0.02 -0.02 0.08 0 0.14 c-0.16 0 -0.28 0.04 -0.5 0.08 c0.02 0.18 -0.08 0.26 -0.16 0.34 c-0.18 0.48 -0.34 0.94 -0.56 1.34 c-0.08 0.36 -0.28 0.66 -0.3 0.96 c-0.22 0.28 -0.22 0.78 -0.46 1.02 c-0.02 0.04 0.02 0.04 0.02 0.1 c-0.14 0.54 -0.36 1.02 -0.54 1.44 l0 0.1 c-0.1 0.26 -0.08 0.64 -0.28 0.92 c0 0.02 0.02 0.02 0.04 0.02 c-0.08 0.08 -0.1 0.16 -0.08 0.28 c-0.12 0.3 -0.24 0.68 -0.32 1.08 c-0.02 0 -0.04 0 -0.06 -0.02 c-0.08 0.34 -0.2 0.78 -0.32 1.08 c0.04 0.14 -0.02 0.28 -0.12 0.34 c0.06 0.14 -0.08 0.14 -0.02 0.32 c-0.14 0.04 -0.04 0.32 -0.22 0.36 c0.06 0.16 -0.02 0.36 -0.12 0.46 z M8.54 8.34 c0 -0.02 0.04 -0.04 0.04 -0.06 c-0.04 -0.02 -0.1 0.06 -0.04 0.06 z M8.78 8.44 c0.1 -0.02 0.14 0.02 0.18 -0.08 c-0.06 0 -0.16 0 -0.18 0.08 z M7.92 8.56 c-0.08 -0.06 -0.06 0.08 0 0 l0 0 z M7.22 8.64 c0.06 0.1 0.04 -0.06 0 0 l0 0 z M5.98 8.88 c-0.02 0.04 -0.04 0.02 -0.06 0 c-0.04 0.1 0.14 0.04 0.06 0 z M5.66 8.98 c0.02 0.1 0.02 -0.1 0 0 l0 0 z M5.58 9 c0.04 0.08 0.06 -0.08 0 0 l0 0 z M5.3 9.02 c0 0.06 0.04 0.06 0.1 0.06 l0 -0.08 c-0.06 0 -0.06 0.04 -0.1 0.02 z M2.76 9.84 c-0.1 0 -0.18 0.02 -0.22 0.06 c0.1 0 0.16 -0.02 0.22 -0.06 c0.06 0.02 0.1 -0.06 0.14 0 c-0.92 0.38 -2 0.54 -2.86 0.94 c1.42 0.26 2.54 1.02 2.7 2.28 c0.1 -0.02 0.12 0.2 0.16 0.28 c-0.02 0.02 -0.08 0.02 -0.08 0.06 c0.08 0 0.06 0.12 0.08 0.16 c0 -0.04 0.02 -0.06 0.06 -0.06 c0.12 0.36 0.3 0.82 0.22 1.16 c-0.02 -0.02 -0.04 0.02 0 0 l0 0.08 c0.14 0.14 0.04 0.46 0.12 0.7 c-0.14 0.16 0.02 0.44 -0.16 0.62 c0.02 0.06 0.06 0.1 0.06 0.2 c-0.06 0 -0.04 -0.08 -0.06 -0.08 c-0.04 0.22 0 0.34 -0.02 0.58 c0.04 0.06 0.1 -0.1 0.12 -0.04 c0 0.12 0.04 0.16 0 0.26 c-0.12 -0.06 -0.04 0.02 -0.1 0.08 c0 -0.06 0 -0.18 -0.04 -0.1 c0.04 0.04 -0.12 0.26 0 0.28 c-0.02 -0.06 0.12 -0.08 0.12 -0.02 c-0.08 0.06 -0.24 0.32 -0.1 0.5 c-0.12 -0.02 -0.08 0.12 0 0.12 l0 -0.12 l0.02 0 c0 -0.18 0 -0.28 0.06 -0.36 c0.02 0.16 -0.02 0.28 0 0.36 c0.94 -2.94 1.76 -5.9 2.86 -8.66 c-0.1 -0.04 -0.14 0.02 -0.28 0.04 c-0.14 0.04 -0.3 0 -0.44 0.02 c-0.06 0.02 -0.12 0.12 -0.22 0.12 c-0.52 0.08 -1 0.26 -1.48 0.36 c-0.14 0.02 -0.2 0.02 -0.3 0.06 c-0.18 0.08 -0.44 0.08 -0.58 0.18 z M4.84 9.16 c0.02 0 0.04 0.02 0.08 0.02 l0 -0.08 c-0.04 0 -0.08 0.02 -0.08 0.06 z M4.8 9.18 c0.02 0.02 0 -0.02 0 0 l0 0 z M4.58 9.24 c0.04 0 0.1 0.02 0.1 -0.02 c-0.02 0 -0.02 -0.04 -0.04 -0.04 c0 0.04 -0.06 0.02 -0.06 0.06 z M3.76 9.44 c0.02 0.02 -0.02 0 0 0 l0 0 z M2.02 9.56 c0.06 0.02 0.16 -0.1 0.08 -0.12 c0.02 0.1 -0.06 0.08 -0.08 0.12 z M3.44 9.52 c0.02 0.02 -0.02 -0.02 0 0 l0 0 z M3.24 9.56 l0.08 0 c0 0 0 -0.04 -0.02 -0.04 c-0.02 0.04 -0.04 0.04 -0.06 0.04 z M3.38 9.54 l0 0 l0 0 z M1.96 9.56 c0 0.02 -0.02 0 0 0 l0 0 z M1.94 9.56 c-0.02 0.02 -0.04 0 -0.04 0.04 c0.02 -0.02 0.04 0 0.04 -0.04 z M1.8 9.62 c0.04 0.1 0.04 -0.08 0 0 l0 0 z M3.04 9.6 l-0.08 0 c-0.06 0.1 0.1 0.06 0.08 0 z M3.14 9.62 c0.02 0.1 0.02 -0.08 0 0 l0 0 z M2.86 9.66 c-0.06 0.08 0.06 -0.06 0 0 l0 0 z M1.52 9.72 c0 0 -0.02 -0.02 0 0 l0 0 z M2.38 9.8 c0.02 0 0 0 0 0 l0 0 z M1.26 9.9 c0.08 -0.02 0.06 0 0.12 0.04 c0 -0.06 0 -0.08 -0.04 -0.1 c0 0.06 -0.12 -0.02 -0.08 0.06 z M2.24 9.84 c-0.02 0 -0.06 0 -0.06 0.02 c0.02 0 0.06 0 0.06 -0.02 z M1.14 9.96 l-0.06 -0.06 c-0.04 0.06 0.06 0.12 0.06 0.06 c0.06 -0.02 0.06 0.02 0.08 0.02 c0 -0.04 0.02 -0.04 0.02 -0.08 c-0.02 -0.04 -0.08 0 -0.1 0.06 z M2.44 9.9 c0.04 0.08 0.06 -0.08 0 0 l0 0 z M1.96 9.94 c-0.04 0.08 0.08 -0.06 0 0 l0 0 z M1.94 10.08 c0.16 -0.04 0.34 -0.06 0.48 -0.14 c-0.22 0 -0.38 0.04 -0.48 0.14 z M0.86 10 c-0.08 0 -0.16 0.06 -0.12 0.1 c0 -0.06 0.14 0.02 0.14 -0.06 c-0.02 0 -0.02 -0.02 -0.02 -0.04 c0.04 0.02 0.04 0.06 0.12 0.04 c-0.02 -0.02 0 -0.02 0 -0.06 c-0.04 -0.02 -0.1 -0.04 -0.12 0.02 z M1.04 9.96 c-0.02 0 -0.04 0 -0.04 0.02 c0.02 0 0.04 0 0.04 -0.02 z M1.48 10.08 c0.02 0.02 0 0 0 0 l0 0 z M-0.4 10.1 c-0.16 0.02 0.12 0 0 0 l0 0 z M1.82 10.1 c0.04 0.08 0.06 -0.06 0 0 l0 0 z M0.5 10.16 l0 0 l0 0 z M1.7 10.16 c0 -0.04 -0.02 -0.04 -0.02 0 c0.02 0 0.02 0.02 0.02 0 z M1.52 10.2 c0.04 0 0.12 0.02 0.08 -0.04 l-0.08 0 l0 0.04 z M2.44 13.2 c-0.02 0.14 0.02 -0.08 0 0 l0 0 z M2.44 13.32 c0.02 0 0.02 0.02 0.04 0.02 c0 -0.02 0 -0.08 -0.04 -0.06 l0 0.04 z M2.48 13.4 l0.06 0 l0 -0.02 l-0.06 0 l0 0.02 z M4.78 13.559999999999999 c0.02 0.02 -0.02 0 0 0 l0 0 z M4.78 13.64 c-0.02 0 -0.04 0 -0.04 0.02 c0 0 0.04 0 0.04 -0.02 z M4.66 13.719999999999999 c0.02 0.02 -0.02 -0.02 0 0 l0 0 z M3.04 18.7 c0.06 0.08 0.02 0.18 0 0.26 c-0.06 0 -0.12 0 -0.06 0.06 c-0.04 0.02 0.06 0 0.1 0.06 c0.04 -0.16 0.14 -0.3 0.12 -0.48 c0.18 -0.22 0.18 -0.66 0.32 -0.88 c0.14 -0.52 0.34 -1.22 0.58 -1.8 c0 -0.22 0.1 -0.54 0.22 -0.74 c0 -0.06 0 -0.1 -0.02 -0.1 c0.14 -0.4 0.32 -0.9 0.34 -1.34 c-0.54 1.5 -1.06 3.44 -1.6 4.96 z M2.58 13.780000000000001 c0.02 0.02 0 0 0 0 l0 0 z M3 13.86 c0.02 0.08 0.02 -0.1 0 0 l0 0 z M5.08 13.92 c0.02 0.08 0.02 -0.08 0 0 l0 0 z M3.02 13.96 c0 -0.02 -0.04 -0.02 -0.04 0 c0.02 0 0.04 0.04 0.04 0 z M3.02 14.04 c-0.02 0.12 0.02 -0.1 0 0 l0 0 z M4.98 14.26 c-0.04 0.12 0.08 0 0 0 l0 0 z M2.92 14.6 c-0.02 -0.08 0.02 -0.24 -0.04 -0.28 c-0.06 0.1 0 0.24 0.04 0.28 z M4.84 14.719999999999999 c0.06 0.04 0.06 -0.12 0.02 -0.12 c-0.02 0.02 -0.04 0.06 -0.02 0.12 z M2.92 14.82 c0.02 0 0 -0.02 0 0 l0 0 z M4.76 15.08 c-0.02 -0.06 0.06 -0.14 0.02 -0.2 c0 0.08 -0.1 0.16 -0.02 0.2 z M2.92 14.96 c0.02 0.02 0 0 0 0 l0 0 z M2.98 15.26 c0.02 -0.08 0 -0.18 -0.06 -0.2 c0.04 0.08 -0.06 0.18 0.06 0.2 z M4.68 15.3 c0 -0.02 0 -0.06 0.06 -0.04 c-0.02 -0.04 0.02 -0.14 -0.04 -0.12 c0.02 0.04 -0.08 0.1 -0.02 0.16 z M3.2 15.42 c-0.02 -0.08 0.02 -0.1 0.04 -0.16 c-0.02 -0.02 -0.04 -0.04 -0.1 -0.04 c0.06 0.1 -0.06 0.16 0.06 0.2 z M2.98 15.879999999999999 c-0.04 -0.16 0 -0.38 -0.06 -0.56 c0 0.12 -0.06 0.46 0.06 0.56 z M4.66 15.32 c-0.04 0.02 0 0.04 0 0 c0.04 0 0 0 0 0 z M4.74 15.32 c0 0.02 -0.02 0 0 0 l0 0 z M4.62 15.440000000000001 c0.02 0.1 0.02 -0.08 0 0 l0 0 z M4.58 15.719999999999999 c0 -0.06 0.06 -0.16 0 -0.2 c-0.02 0.04 -0.04 0.16 0 0.2 z M3.14 15.559999999999999 c0.02 0 0 0 0 0 l0 0 z M4.44 16.1 c0.04 -0.08 0.14 -0.24 0.08 -0.34 c-0.04 0.1 -0.14 0.26 -0.08 0.34 z M4.36 15.879999999999999 c0.02 0.02 0 0 0 0 l0 0 z M2.96 16.62 c-0.04 -0.24 0.08 -0.56 -0.06 -0.68 c0.02 0.3 -0.06 0.56 0.06 0.68 z M4.44 16.14 c-0.02 0 -0.04 0 -0.04 0.02 c0 0 0.04 0 0.04 -0.02 z M4.1 17.22 c0.16 -0.14 0.06 -0.62 0.26 -0.7 c-0.06 -0.14 0.08 -0.26 0 -0.34 c-0.08 0.34 -0.24 0.68 -0.26 1.04 z M4.1 16.52 c-0.02 0 -0.06 0 -0.06 0.02 c0.02 0 0.06 0 0.06 -0.02 z M2.9 17.72 c-0.04 -0.28 0.1 -0.82 0 -1.08 c0.02 0.36 -0.18 0.76 0 1.08 z M4 17.54 c0.04 -0.02 0.1 -0.22 0.02 -0.22 c0.04 0.12 -0.1 0.16 -0.02 0.22 z M3.96 17.7 c0 -0.02 0.06 -0.1 0 -0.1 c-0.02 0.02 -0.06 0.08 0 0.1 z M3.66 17.72 c0.06 0.02 0.1 -0.06 0.04 -0.08 c0 0.04 -0.02 0.06 -0.04 0.08 z M2.7 18.42 c0.04 0.48 -0.18 0.78 -0.1 1.22 c0.08 -0.24 0.1 -0.56 0.1 -0.84 c0.1 -0.34 0.2 -0.76 0.12 -1.04 c-0.06 0.22 -0.02 0.48 -0.12 0.66 z M3.82 18.04 c0.08 -0.02 0.1 -0.24 0.08 -0.3 c-0.02 0.12 -0.08 0.18 -0.08 0.3 z M3.1 17.88 c0.02 0.08 0.02 -0.08 0 0 l0 0 z M3.04 17.98 c-0.04 0.06 -0.08 0.2 -0.04 0.22 c0.08 0 0.14 -0.14 0.1 -0.24 c0 0.06 -0.08 -0.06 -0.08 0 c0.02 0 0.04 0 0.02 0.02 z M3.76 18.28 c0.06 0 0.08 -0.16 0.04 -0.18 c-0.02 0.06 -0.06 0.1 -0.04 0.18 z M3.56 18.2 c-0.02 0.02 -0.04 0 -0.04 0.04 c0 -0.02 0.04 0 0.04 -0.04 z M3 18.3 c-0.02 0.2 0.06 -0.06 0 0 l0 0 z M3.64 18.6 c0.08 0 0.14 -0.24 0.06 -0.24 c-0.04 0.08 -0.02 0.14 -0.06 0.24 z M3.54 18.94 c0.06 0 0.08 -0.12 0.04 -0.14 c-0.02 0.04 -0.02 0.1 -0.04 0.14 z M3.46 19.16 c0.08 0.04 0.06 -0.1 0.02 -0.1 c0.02 0.06 -0.04 0.06 -0.02 0.1 z M3.02 19.16 c-0.04 0.02 0 0.02 0 0 c0.1 0 0 -0.02 0.06 -0.06 c-0.06 0 -0.06 0.04 -0.06 0.06 z M3.26 19.16 l-0.04 0 c0.02 0 0.04 0.04 0.04 0 z M3.44 19.36 c-0.02 -0.06 0.06 -0.1 0 -0.12 c0.02 0.04 -0.06 0.1 0 0.12 z M3.38 19.48 c-0.02 0.14 0 -0.08 0 0 l0 0 z M2.42 20.4 c0.02 -0.22 0.24 -0.54 0.12 -0.7 c-0.04 0.26 -0.18 0.46 -0.12 0.7 z M3.3 19.82 c0 -0.02 0.06 -0.12 -0.04 -0.1 c0.02 0.04 0 0.08 0.04 0.1 z M3.14 20.2 c0 -0.06 0.1 -0.1 0.04 -0.16 c-0.02 0.04 -0.08 0.12 -0.04 0.16 z M3.12 20.26 c0.02 0.02 -0.02 -0.02 0 0 l0 0 z M3.12 20.4 c0 -0.04 0 -0.06 -0.04 -0.08 c-0.02 0.04 0 0.08 0.04 0.08 z M3.1 20.6 c0.02 -0.04 0 -0.16 -0.08 -0.18 c0.02 0.06 0 0.18 0.08 0.18 z M2.86 20.98 c0.04 0.1 -0.08 0.18 -0.04 0.22 c0.08 -0.12 0.26 -0.4 0.18 -0.56 c-0.06 0.1 -0.06 0.38 -0.14 0.34 z M2.74 21.5 c0.06 -0.02 0.08 -0.18 0.04 -0.22 c0 0.08 -0.04 0.12 -0.04 0.22 z M2.64 21.94 c0.02 0.1 0.02 -0.1 0 0 l0 0 z M1.92 22.38 c0.02 0.1 0.02 -0.1 0 0 l0 0 z M7.2 8.22 c0 -0.02 0.02 -0.02 0.02 -0.02 c0 0.02 0 0.02 -0.02 0.02 z M7.92 8.22 l0 0 c0.02 0.02 0 0 0 0 z M7.1 8.24 c0 -0.02 0.02 -0.02 0.04 -0.02 c0 0.02 -0.02 0.02 -0.04 0.02 z M6.2 8.28 c0.06 -0.06 -0.06 0.08 0 0 l0 0 z M7.96 8.3 c0 -0.02 0.02 -0.02 0.04 -0.02 c0 0.02 -0.02 0.02 -0.04 0.02 z M8.42 8.34 c-0.04 0 -0.06 -0.02 -0.06 -0.06 c0.04 -0.02 0.06 0.02 0.06 0.06 z M5.9 8.3 c0.02 0 0.02 0.02 0.06 0.02 l0 0.04 c-0.06 0 -0.14 0.02 -0.2 0.02 c-0.02 -0.08 0.12 -0.02 0.14 -0.08 z M8.1 8.34 l0 0 c0.02 0.02 -0.02 0 0 0 z M10.5 8.36 l0 0 s-0.02 0 0 0 z M7.9 8.38 c-0.02 0.02 -0.02 0.04 -0.02 0.06 c-0.06 -0.08 -0.16 0.12 -0.16 -0.04 c0.08 -0.02 0.08 -0.04 0.18 -0.02 z M10.34 8.36 c0 0.06 -0.2 0.14 -0.18 0.02 c0.04 -0.02 0.14 -0.02 0.18 -0.02 z M10.38 8.38 c0 -0.02 0.04 0 0.04 -0.02 c-0.02 0 -0.04 0 -0.04 0.02 z M6.26 8.4 c-0.02 0.08 -0.06 0.08 -0.12 0.02 c0 -0.06 0.1 -0.06 0.12 -0.02 z M7.94 8.4 l0 0 c0.02 -0.02 0 -0.04 0 0 z M8.2 8.38 c0.04 0 0.02 0.06 0.02 0.08 c-0.04 0 -0.04 -0.06 -0.02 -0.08 z M5.54 8.4 c0.04 -0.02 0.04 0.02 0.04 0.04 c-0.02 0 -0.02 0.02 -0.02 0.02 c-0.02 0 -0.02 -0.04 -0.02 -0.06 z M7.94 8.4 l0 0 c-0.02 0.02 0 0.02 0 0 z M5.26 8.42 c0.04 0 0.02 0.06 0.04 0.1 c-0.1 -0.02 -0.12 0.06 -0.22 0.04 c-0.02 -0.16 0.16 0 0.18 -0.14 z M5.42 8.42 l0.04 0 l0 0.04 l-0.04 0 l0 -0.04 z M5.9 8.6 c0.02 -0.1 -0.08 -0.08 -0.02 -0.18 c0.08 0.06 0.04 0 0.14 0 c0.02 0.08 -0.02 0.08 0 0.16 c-0.08 -0.02 -0.06 0 -0.12 0.02 z M5.92 8.54 l0.06 0 l0 -0.04 l-0.06 0 l0 0.04 z M7.52 8.44 c0 -0.02 0.02 -0.02 0.04 -0.02 c0 0.02 -0.02 0.02 -0.04 0.02 z M13.82 8.44 c0.02 -0.08 0.02 0.1 0 0 l0 0 z M5.8 8.54 c-0.02 0 -0.02 -0.02 -0.02 -0.04 c-0.02 0 0 0.06 -0.08 0.04 c-0.04 -0.12 0.22 -0.08 0.1 0 z M7.46 8.46 l0.06 0 l0 0.06 l-0.06 0 l0 -0.06 z M8.1 8.5 c0 -0.04 0.04 -0.04 0.04 0 c0 0.02 -0.02 0 -0.04 0 z M5.62 8.52 c0.02 -0.1 0.02 0.08 0 0 l0 0 z M5.48 8.52 c0.06 0.02 -0.02 0.08 -0.06 0.06 c-0.04 -0.08 0.08 0 0.06 -0.06 z M5.54 8.54 c0.02 -0.1 0.02 0.08 0 0 l0 0 z M7.42 8.54 l0 0 c0.02 0.02 -0.02 0 0 0 z M4.98 8.56 c0 0.04 -0.12 0.04 -0.08 -0.02 l0.06 0 c0 0.02 0 0.02 0.02 0.02 z M4.98 8.56 c0.04 -0.06 0.12 0.04 0 0 l0 0 z M4.86 8.58 c0 0.04 -0.08 0.04 -0.1 0.02 c0.04 -0.04 0.06 -0.02 0.1 -0.02 z M5.3 8.58 l0 0 l0 0 z M4.7 8.58 c0.1 0.06 -0.06 0.06 0 0 l0 0 z M5.22 8.58 c0.02 0.1 -0.12 0.02 -0.14 0.08 c-0.04 -0.04 0.06 -0.08 0.14 -0.08 z M5.76 8.6 c0.06 -0.04 -0.06 0.08 0 0 l0 0 z M4.66 8.6 c-0.08 0.06 -0.2 0.08 -0.3 0.14 l0 -0.12 c0.16 -0.02 0.22 0 0.3 -0.02 z M5.66 8.68 c-0.08 0.04 -0.02 -0.06 -0.1 -0.04 c0 -0.06 0.12 -0.04 0.1 0.04 z M5.9 8.6 l0 0 c-0.04 0 0 0.02 0 0 z M4.86 8.62 c0.02 0 0.06 0.04 0.1 0.04 c-0.02 0.06 -0.14 0.04 -0.1 -0.04 z M12.86 8.64 c0.04 0 0.04 -0.02 0.1 -0.02 c0 0.06 -0.1 0.04 -0.1 0.1 c-0.04 -0.02 -0.04 -0.04 -0.08 -0.06 c0 -0.02 0.08 -0.06 0.08 -0.02 z M5.98 8.66 l0 0 c0.02 0.02 -0.02 0 0 0 z M12.4 8.78 c0.06 -0.1 0.2 -0.08 0.26 -0.1 c0 0.1 -0.16 0.02 -0.14 0.12 c-0.04 0.02 -0.1 0.02 -0.12 -0.02 z M12.68 8.66 l0.06 0 l0 0.06 l-0.06 0 l0 -0.06 z M4.18 8.72 l0 0 s-0.02 -0.02 0 0 z M5.34 8.72 c0.04 -0.08 0.06 0.08 0 0 l0 0 z M5.44 8.68 c0.06 0.02 0.1 0.14 0 0.12 c-0.04 -0.04 0.02 -0.04 0 -0.12 z M5.54 8.74 l0 0 c0.02 0.02 0 -0.02 0 0 z M4.04 8.76 l0 0 c-0.02 0.12 0.02 -0.1 0 0 z M5.2 8.76 l0 0 c0.02 0.02 -0.02 0 0 0 z M3.88 8.8 c0.02 -0.08 0.02 0.08 0 0 l0 0 z M4.36 8.8 l0 0 c0.02 0.02 0 0 0 0 z M5.24 8.78 c0.04 0.06 -0.1 0.06 -0.02 0.06 c0 0.02 -0.02 0.02 -0.02 0.02 l-0.06 0 l0 -0.06 c0.02 -0.02 0.06 -0.02 0.1 -0.02 z M5.7 8.78 c0.08 -0.04 0.08 0.1 0 0.06 l0 -0.06 z M12.4 8.78 c-0.04 0.06 -0.06 0.04 -0.16 0.06 c0 -0.08 0.08 -0.06 0.16 -0.06 z M4.32 8.84 c0.02 -0.1 0.02 0.06 0 0 l0 0 z M4.2 8.84 l0.04 0 l-0.04 0 z M4.7 8.84 l0 0 c0.02 0.02 0 0 0 0 z M5.02 8.84 c0 0 0.04 -0.02 0.06 0 c0.02 0 -0.08 0.04 -0.06 0 z M5.46 8.84 c0.04 0.02 0.06 0 0.1 0 c0.02 0.04 -0.06 0.02 -0.1 0.04 l0 -0.04 z M12.06 8.86 c0 -0.02 0.02 -0.04 0.06 -0.02 c0 0 -0.02 0.02 -0.06 0.02 z M12.16 8.84 l0 0 c0 0.02 -0.02 0 0 0 z M12 8.86 c0.02 -0.08 0.02 0.1 0 0 l0 0 z M4.56 8.86 l0.02 0 l0 0.04 l-0.02 0 l0 -0.04 z M4.8 8.88 c0.02 -0.08 0.02 0.1 0 0 l0 0 z M5.24 8.88 c0.04 -0.08 0.04 0.1 0 0 l0 0 z M5.4 8.88 l0 0 c0 0.02 -0.02 0 0 0 z M11.9 8.88 c0 -0.02 0.04 -0.02 0.06 -0.02 c0 0.02 -0.04 0.02 -0.06 0.02 z M12.06 8.86 l0 0 c-0.04 0.02 0 0.02 0 0 z M3.88 8.88 c0.04 0 0.08 0 0.08 0.06 l-0.08 0 l0 -0.06 z M4.76 8.88 c-0.02 0.06 -0.08 0.08 -0.18 0.08 c0.04 -0.06 0.12 -0.06 0.18 -0.08 z M11.82 8.9 l0 0 c0 0.02 -0.02 0 0 0 z M3.36 8.9 l0.04 0 l0 0.06 l-0.04 0 l0 -0.06 z M3.8 8.9 c0.02 0.08 -0.34 0.22 -0.36 0.1 c0.18 -0.02 0.24 -0.04 0.36 -0.1 z M11.68 8.9 l0.06 0 c0 0.06 -0.04 0.06 -0.08 0.06 c0 -0.02 0.02 -0.02 0.02 -0.06 z M14.92 8.98 c0.02 0 0.02 0 0.02 -0.02 c0.18 0 0.2 -0.08 0.36 -0.02 c-0.04 0.14 -0.24 0 -0.26 0.14 c-0.06 -0.06 -0.1 -0.04 -0.12 -0.1 z M4.48 8.96 c0.06 -0.1 0.04 0.08 0 0 l0 0 z M3.24 8.98 l0 0 c0.04 -0.02 0 -0.02 0 0 z M11.46 8.98 l0 0 c0.02 0.02 0 0 0 0 z M3.24 8.98 c0 0.04 -0.04 0.04 -0.02 0.1 c0.1 0 0.14 -0.08 0.2 -0.02 c-0.04 0.04 -0.18 0.04 -0.28 0.1 c-0.04 -0.06 0.1 -0.08 0 -0.1 c0 -0.06 0.04 -0.08 0.1 -0.08 z M4.1 8.98 c-0.02 0.04 -0.04 0.04 -0.08 0.04 c0.02 -0.02 0.04 -0.04 0.08 -0.04 z M4.12 8.98 c0.04 0.02 0.06 0.04 0.06 0.08 c-0.04 -0.02 -0.06 -0.04 -0.06 -0.08 z M4.62 9 c0.06 -0.04 0.06 0.1 0 0.08 l0 -0.08 z M3.68 9.06 c0.04 0.02 0.06 0.06 0.08 0.12 c-0.04 0 -0.04 0 -0.06 0.02 c-0.04 -0.06 -0.04 -0.1 -0.02 -0.14 z M4 9.08 c-0.04 0.04 -0.1 0.04 -0.14 0.08 c0 -0.06 0.04 -0.08 0.14 -0.08 z M4.44 9.08 c0.02 0 0.04 0 0.04 0.04 c-0.04 0.02 -0.04 -0.02 -0.04 -0.04 z M3.02 9.08 c0.04 0.02 0.1 0.02 0.08 0.1 l-0.08 0 l0 -0.1 z M4.3 9.1 l0 0 c0 0.02 -0.02 0 0 0 z M2.82 9.38 c0.02 -0.04 0.04 -0.06 0.04 -0.08 c-0.02 -0.04 -0.06 -0.04 -0.08 -0.06 c-0.04 0 -0.04 0.08 0 0.08 c-0.02 0.06 -0.12 -0.18 -0.14 -0.02 c-0.1 -0.06 0.02 -0.08 0.02 -0.12 c0.06 0.08 0.16 0.02 0.16 -0.08 c0.08 0.06 0.1 0.22 0 0.28 z M2.9 9.16 c0.02 -0.08 0.04 0.08 0 0 l0 0 z M3.92 9.18 c0.02 -0.04 0.06 -0.02 0.06 0 c-0.02 0.04 -0.02 0 -0.06 0 z M4.02 9.18 l0 0 c0.02 0.02 0 -0.02 0 0 z M3.56 9.18 c-0.02 0.06 -0.04 0.1 -0.1 0.12 c-0.02 -0.02 -0.02 -0.06 -0.02 -0.1 c0.06 0.02 0.06 -0.04 0.12 -0.02 z M3.38 9.22 c0.02 0.02 0.04 0.04 0.04 0.1 c-0.04 -0.02 -0.08 -0.06 -0.04 -0.1 z M3.3 9.28 c0.02 -0.08 0.06 0.06 0 0 l0 0 z M2.9 9.3 c0.06 -0.06 0.08 0.08 0.18 0.02 c-0.04 0.04 -0.1 0.06 -0.18 0.06 c0 -0.06 0.08 -0.06 0 -0.08 z M5.14 9.3 c0 0.02 -0.08 0 -0.08 0.04 c-0.06 -0.02 0.02 -0.06 0.08 -0.04 z M3.54 9.32 c-0.02 0.06 -0.06 0.06 -0.1 0.02 c0 -0.02 0.06 -0.02 0.1 -0.02 z M3.32 9.38 l0 0 c0.02 0 -0.02 -0.02 0 0 z M3.04 9.42 l0 0 c0 -0.04 -0.02 0 0 0 z M4.68 9.4 c0 0.04 -0.06 0 -0.06 0.04 c-0.06 -0.02 0.02 -0.06 0.06 -0.04 z M1.42 9.42 c0.02 0 0.04 0.02 0.04 0.02 c0.02 0.06 -0.08 0.04 -0.04 -0.02 z M3.04 9.42 c0.08 0 -0.02 0.1 0 0 l0 0 z M4.54 9.44 l0 0 c0.02 0.02 -0.02 0 0 0 z M4.46 9.44 c-0.02 0.04 -0.04 0.04 -0.1 0.06 c-0.02 -0.08 0.06 -0.04 0.1 -0.06 z M4.22 9.52 c0 -0.02 0.02 -0.02 0.04 -0.02 c0 0.02 -0.02 0.02 -0.04 0.02 z M1.14 9.54 c0 -0.02 0.04 -0.02 0.06 -0.02 c-0.02 0.02 -0.04 0.02 -0.06 0.02 z M2.66 9.56 c0 -0.02 0.02 -0.02 0.02 -0.04 l0.06 0 l0 0.08 c-0.04 -0.02 -0.06 -0.04 -0.08 -0.04 z M4.1 9.56 c0 -0.02 0.02 -0.02 0.04 -0.02 c0 0.02 -0.04 0.02 -0.04 0.02 z M3.88 9.56 c0.08 0.08 -0.1 0.06 0 0 l0 0 z M0.78 9.64 l0 0 c0.02 0.02 -0.02 0 0 0 z M3.74 9.64 c0 -0.02 0.04 -0.02 0.06 -0.02 c0 0.02 -0.04 0.02 -0.06 0.02 z M0.72 9.74 c-0.04 -0.02 -0.14 0.02 -0.12 -0.06 c0.04 0.02 0.06 0.04 0.06 -0.02 c0.04 0 0.08 0.02 0.06 0.08 z M2.02 9.68 l0 0 c0.02 0.02 0 0 0 0 z M2.2 9.66 c0.04 0.02 0 0.04 0 0.08 c-0.02 -0.02 0 -0.04 0 -0.08 z M3.52 9.68 c-0.18 0.1 -0.38 0.14 -0.62 0.16 c0.18 -0.08 0.42 -0.1 0.62 -0.16 z M0.52 9.74 l0 0 c0.02 -0.02 -0.02 -0.04 0 0 z M2.04 9.72 c0.08 -0.02 0.06 0.02 0.12 0.02 c0 0.02 -0.1 0.06 -0.12 0.02 l0 -0.04 z M0.52 9.74 c0.02 0.08 -0.1 -0.02 0 0 l0 0 z M1.94 9.8 c0.06 -0.04 -0.06 0.06 0 0 l0 0 z M-1.1 11.26 l0 0 c0.02 0 -0.02 -0.02 0 0 z M-1.2 11.3 c-0.02 0.04 -0.04 0.04 -0.08 0.04 c0 -0.04 0.04 -0.04 0.08 -0.04 z M2.86 13.08 l0 0 c0 0.02 -0.02 0 0 0 z M2.66 14.559999999999999 l0 0 c0.02 0.02 0 0 0 0 z M2.66 14.6 c0.1 0.04 0.02 0.26 0.04 0.4 c-0.04 -0.12 -0.08 -0.3 -0.04 -0.4 z M2.68 15.1 c0.06 -0.04 0 0.2 0 0 l0 0 z M2.68 15.36 l0 0 c0.02 0 0 -0.02 0 0 z M2.7 15.559999999999999 l0 0 c0.02 0 0 0 0 0 z M3.18 16.28 c0.04 0.06 0.14 0.32 -0.04 0.3 c0.1 -0.08 -0.02 -0.18 0.04 -0.3 z M9.68 15.66 c-0.06 0.34 0 0.56 -0.32 0.74 c-0.24 0.6 -0.82 0.88 -1.26 1.28 c-0.38 0.08 -0.84 0.34 -1.2 0.08 c-0.22 0.3 -0.24 0.66 -0.34 1.1 c0.82 0.58 2.02 -0.18 2.86 -0.44 c0.46 -0.26 0.96 -0.52 1.48 -0.74 c0.06 -0.08 0.18 -0.1 0.24 -0.16 c0.06 0.18 -0.36 0.28 -0.5 0.42 c0 0.04 0.04 0.02 0.08 0.02 c-0.56 0.5 -1.18 0.8 -1.92 1.06 c0.14 0 0.44 0 0.62 -0.1 c-0.02 0.1 -0.1 0.12 -0.18 0.16 c0 0.04 0.12 -0.02 0.08 0.06 c-0.24 0.08 -0.46 0.32 -0.58 0.24 c-0.1 0.04 -0.02 0.08 -0.06 0.14 c-0.54 0.24 -0.9 0.4 -1.6 0.4 c-0.96 -0.2 -1.08 -1.14 -0.96 -2 c0.36 -1.1 1.14 -2.32 2.24 -2.86 c0.2 -0.1 0.44 -0.06 0.64 -0.06 c0.16 0.02 0.2 0.14 0.34 0.16 c0.04 0.24 0.2 0.36 0.34 0.5 z M8.12 16.02 c0.08 0.02 0.14 -0.14 0.2 -0.06 c-0.34 0.26 -0.64 0.54 -0.9 0.88 c0.66 -0.34 1.26 -0.74 1.64 -1.34 c-0.34 0.14 -0.74 0.24 -0.94 0.52 z M8 16.1 c0.02 0.02 0 -0.02 0 0 l0 0 z M7.84 19.2 c0.06 0.02 0.14 -0.04 0.12 0.12 c0.1 -0.06 0.16 -0.1 0.26 0 c0.04 -0.04 -0.04 -0.12 0.04 -0.12 c0.14 0 0.38 -0.1 0.5 -0.18 c-0.3 0.16 -0.68 0.06 -0.92 0.18 z M11.219999999999999 17.48 l0 0 c0.04 0 0 -0.02 0 0 z M11.219999999999999 17.48 c0 0.04 -0.04 0.02 0 0 l0 0 z M9.36 19.04 c0.04 -0.08 0.04 0.1 0 0 l0 0 z M13.099999999999998 12.5 c0.08 0.18 0.08 0.4 0.1 0.68 c-0.24 0.52 -0.8 0.18 -1.04 -0.08 c0.02 -0.18 -0.04 -0.28 0.02 -0.4 c0.42 0 0.56 -0.14 0.92 -0.2 z M10.399999999999999 27.92 c-0.04 0.12 -0.06 0.38 -0.26 0.46 c0.02 0.32 -0.3 0.8 -0.52 0.96 c-0.06 0.12 0.04 0.12 0 0.2 c-0.02 0 -0.04 0.02 -0.06 0.02 l0 -0.08 c-0.04 0.02 -0.06 0.14 0 0.08 c0 0.12 -0.1 0.14 -0.12 0.24 c-0.04 0.04 -0.04 -0.02 -0.12 0 s-0.06 0.12 -0.08 0.18 c0.04 0.08 0.06 -0.08 0.14 -0.06 c-0.64 1 -1.44 1.68 -2.28 2.44 c-0.08 0.02 -0.06 -0.06 -0.12 -0.04 c0 0.12 -0.06 0.12 -0.12 0.22 c-0.04 0 -0.06 -0.04 -0.06 -0.08 c-0.76 0.68 -2.08 1 -3.28 0.52 l0 -0.08 c-0.98 -0.5 -1.38 -1.78 -1.42 -3 c0.3 -1.96 1.12 -3.96 2.42 -5.24 c-0.02 -0.08 0.04 -0.08 0.04 -0.14 c1.82 -1.86 3.82 -3.52 6.84 -4.18 c0.14 -0.96 0.38 -2.5 0.16 -3.52 c-0.02 -0.06 -0.06 -0.1 -0.14 -0.08 c-0.14 -0.62 0.94 -0.86 1.12 -0.26 c0.12 1.18 -0.18 2.42 -0.26 3.7 c1.26 0.06 2.14 0.1 2.9 0.86 c0.14 0.18 0.52 0.44 0.36 0.66 c-0.38 -0.94 -2 -1.36 -3.22 -1.1 c-0.4 1.16 -0.4 2.4 -0.76 3.5 c0 0.22 -0.02 0.48 -0.16 0.54 c0.08 0.34 -0.14 0.5 -0.12 0.82 c-0.04 0.04 -0.1 0.06 -0.16 0.08 c0.04 0.04 0.06 0.12 0.12 0.12 c-0.18 0.26 -0.16 0.7 -0.36 0.96 c0 0.52 -0.3 0.78 -0.4 1.2 c-0.04 0 -0.02 -0.04 -0.04 -0.06 c-0.08 0.04 -0.04 0.12 -0.1 0.18 c0.02 0.02 0.04 0 0.06 -0.02 z M11.219999999999999 20.48 c0.06 -0.02 0.16 0 0.18 -0.06 c-0.08 0 -0.18 -0.02 -0.18 0.06 z M10.919999999999998 20.56 c0.08 -0.02 0.22 -0.02 0.26 -0.1 c-0.12 0 -0.24 0.02 -0.26 0.1 z M10.839999999999998 20.56 c-0.08 0 -0.26 0.02 -0.2 0.1 c0.04 -0.08 0.18 -0.04 0.2 -0.1 c0.04 -0.02 0 -0.04 0 0 z M11.079999999999998 20.6 c0.04 0.04 0.16 0.02 0.16 -0.06 c-0.06 0 -0.14 0 -0.16 0.06 z M8.659999999999998 21.5 c0.58 -0.34 1.22 -0.62 1.94 -0.84 c-0.62 0.12 -1.48 0.4 -1.94 0.84 z M10.94 20.68 c-0.02 -0.06 0.12 0.02 0.1 -0.08 c-0.04 0.02 -0.18 0.04 -0.1 0.08 z M11.299999999999999 20.74 l0.04 0 l0 -0.04 l-0.04 0 l0 0.04 z M11.159999999999998 20.78 c0.04 0 0.08 -0.02 0.08 -0.06 c-0.04 0 -0.08 0.02 -0.08 0.06 z M10.52 20.78 c0.04 0.08 0.04 -0.1 0 0 l0 0 z M14.799999999999999 20.78 c-0.06 0.08 0.08 -0.06 0 0 l0 0 z M3.4799999999999986 27.46 c-0.04 0.14 -0.06 0.28 -0.16 0.34 c-0.02 0 -0.04 -0.02 -0.06 -0.02 c0 0.06 -0.04 0.06 -0.02 0.12 c-0.04 0.04 -0.04 0.1 -0.06 0.16 c0.08 0.04 0.02 -0.06 0.1 -0.04 l0 0.12 c-0.04 0.02 -0.14 -0.02 -0.14 0.1 c0.06 0.02 0.06 -0.1 0.1 -0.02 c-0.04 0.16 -0.16 0.28 -0.1 0.44 c-0.04 0.08 -0.1 -0.04 -0.12 0.04 c0.1 0.28 -0.02 0.9 -0.14 1.28 c0.06 0.14 0.04 0.34 0.02 0.44 c-0.06 0 -0.02 -0.12 -0.02 -0.16 c-0.16 0.14 0.02 0.3 -0.08 0.5 c0.02 0.14 0.14 0.28 0.1 0.4 c0.1 0.06 0.1 0.14 0.04 0.24 c0.14 0.6 0.56 1.1 1.2 0.96 c0.06 0.06 0.22 0 0.3 0.06 c2.04 -0.28 3.24 -1.8 4.28 -3.22 c-0.04 0.1 -0.1 0.18 -0.12 0.3 c0.1 -0.06 0.16 -0.18 0.22 -0.3 c0 -0.06 -0.06 -0.04 -0.06 -0.1 c1.56 -2.3 2.06 -5.14 2.56 -8.24 c-0.16 -0.1 -0.28 0.04 -0.38 0 c0 -0.06 0.12 -0.02 0.12 -0.08 c-0.24 0.06 -0.28 0.3 -0.54 0.32 c0 -0.02 0.02 -0.06 -0.02 -0.06 c-0.44 0.18 -0.94 0.48 -1.36 0.66 c0 -0.02 0.12 -0.06 0.04 -0.08 c-0.2 0.16 -0.38 0.26 -0.62 0.42 c0.02 -0.06 0.14 -0.04 0.14 -0.14 c-0.14 0.08 -0.32 0.14 -0.38 0.32 c-0.02 -0.02 -0.02 -0.06 -0.08 -0.06 c-0.16 0.22 -0.5 0.26 -0.64 0.48 c0.12 -0.04 0.18 -0.14 0.32 -0.16 c-0.14 0.12 -0.3 0.22 -0.46 0.3 c0 -0.02 0.1 -0.06 0.02 -0.08 c-0.18 0.2 -0.5 0.36 -0.6 0.56 c-0.04 -0.06 -0.04 0 -0.14 -0.02 c-0.2 0.22 -0.36 0.48 -0.66 0.58 c-0.88 1 -1.84 2.14 -2.46 3.38 c0 -0.08 -0.06 -0.08 -0.12 -0.1 c-0.02 0.22 -0.26 0.38 -0.14 0.54 c0.02 -0.06 0.04 -0.16 0.12 -0.18 z M10.139999999999999 20.92 c0.1 0 0.18 -0.02 0.2 -0.1 c-0.08 0.02 -0.16 0.04 -0.2 0.1 z M10.739999999999998 20.86 l0 0.06 l0.06 0 c0 -0.02 0 -0.04 0.02 -0.02 l0 -0.06 l-0.06 0 c0 0.02 0 0.04 -0.02 0.02 z M10.62 20.94 c0.04 0 0.06 -0.02 0.08 -0.04 c-0.04 0 -0.06 0.02 -0.08 0.04 z M10.559999999999999 20.96 c0.02 0.1 0.02 -0.08 0 0 l0 0 z M9.54 21.18 c0.14 -0.08 0.34 -0.1 0.46 -0.2 c-0.12 0 -0.38 0.06 -0.46 0.2 z M10.399999999999999 21.02 c0.08 0.06 0.08 -0.1 0 0 l0 0 z M10.28 21.08 c0.06 0.02 0.12 -0.06 0.06 -0.06 c0 0.04 -0.06 0.02 -0.06 0.06 z M10.2 21.14 l0.04 0 l0 -0.06 l-0.04 0 l0 0.06 z M9.719999999999999 21.18 c0.02 0 0.08 0 0.06 -0.04 l-0.04 0 c0 0.02 -0.02 0.02 -0.02 0.04 z M9.919999999999998 21.2 c0.04 0.08 0.06 -0.08 0 0 l0 0 z M8.659999999999998 21.64 c0.2 -0.16 0.62 -0.24 0.72 -0.44 c-0.24 0.16 -0.56 0.22 -0.72 0.44 z M9.36 21.38 c0.02 0 0.08 0 0.06 -0.06 l-0.04 0 c0 0.02 -0.02 0.04 -0.02 0.06 z M9.62 21.38 l0.04 0 l0 -0.06 l-0.04 0 l0 0.06 z M9.479999999999999 21.44 c0.1 0.02 0 -0.06 0 0 l0 0 z M8.44 21.64 c0.06 -0.04 0.06 -0.1 0.16 -0.1 l0 -0.1 c-0.08 0.04 -0.28 0.12 -0.16 0.2 z M9.12 21.5 l0.04 0 l0 -0.06 l-0.04 0 l0 0.06 z M8.18 21.7 c0.06 0.06 0.18 0 0.18 -0.08 c-0.08 -0.06 -0.12 0.04 -0.18 0.08 z M8.7 21.74 c0.08 -0.02 0.14 -0.06 0.18 -0.12 c-0.1 0 -0.14 0.04 -0.18 0.12 z M8.579999999999998 21.66 c-0.1 0 0 0.1 0 0 c0.04 -0.02 0 -0.02 0 0 z M8.059999999999999 21.8 c0.02 -0.02 0.14 -0.06 0.06 -0.12 c0 0.04 -0.14 0.08 -0.06 0.12 z M7.959999999999999 22.04 c0.18 -0.1 0.42 -0.16 0.52 -0.34 c-0.18 0.1 -0.4 0.18 -0.52 0.34 z M8.399999999999999 21.94 c0.04 -0.08 0.2 -0.08 0.24 -0.18 c-0.12 0.02 -0.28 0.1 -0.24 0.18 z M7.959999999999999 21.88 c0.08 0.08 0.04 -0.08 0 0 l0 0 z M7.759999999999999 22.02 c0.06 0 0.08 -0.04 0.1 -0.08 c-0.06 0 -0.1 0.02 -0.1 0.08 z M8.2 22.02 c-0.04 0.02 0 0.04 0 0 c0.04 0 0.1 0 0.1 -0.08 c-0.06 0 -0.08 0.04 -0.1 0.08 z M7.459999999999999 22.240000000000002 c0.08 -0.06 0.18 -0.12 0.26 -0.2 c-0.12 0.04 -0.24 0.08 -0.26 0.2 z M7.759999999999999 22.16 c-0.32 0.16 -0.6 0.38 -0.86 0.62 c-0.08 0.08 -0.42 0.2 -0.24 0.3 c0 -0.18 0.22 -0.14 0.24 -0.3 c0.28 -0.2 0.62 -0.38 0.86 -0.62 c0.08 0 0.14 -0.04 0.16 -0.12 c-0.08 0.02 -0.12 0.08 -0.16 0.12 z M8.079999999999998 22.1 l0.04 0 c0.04 -0.06 -0.08 -0.08 -0.06 -0.04 c0 0.02 0.02 0.02 0.02 0.04 z M7.859999999999999 22.240000000000002 c0.1 0.02 0 -0.08 0 0 l0 0 z M7.039999999999999 22.5 c0.14 -0.06 0.28 -0.14 0.36 -0.26 c-0.14 0.06 -0.26 0.16 -0.36 0.26 z M7.579999999999999 22.46 c0.06 -0.02 0.1 -0.06 0.12 -0.12 c-0.08 0 -0.14 0.02 -0.12 0.12 z M7.479999999999999 22.5 l0.04 0 l0 -0.04 l-0.04 0 l0 0.04 z M6.959999999999999 22.6 c0 0.02 -0.02 -0.02 0 0 l0 0 z M7.3199999999999985 22.62 c0.04 0 0.06 -0.02 0.06 -0.04 c-0.04 0 -0.06 0.02 -0.06 0.04 z M6.839999999999999 22.64 l0 0.06 l0.04 0 c0.02 -0.04 0.02 -0.06 -0.02 -0.08 c0 0.02 0 0.02 -0.02 0.02 z M7.019999999999999 22.82 l0.06 0 l0 -0.06 l-0.06 0 l0 0.06 z M6.419999999999999 23.18 c0.04 0 0.06 -0.02 0.08 -0.06 c-0.04 0 -0.08 0 -0.08 0.06 z M6.199999999999999 23.36 c-0.06 -0.02 -0.1 0.08 -0.04 0.1 c0 -0.04 0.06 -0.02 0.04 -0.1 c0.06 0 0.1 -0.02 0.1 -0.1 c-0.06 0.02 -0.1 0.04 -0.1 0.1 z M5.539999999999999 24.06 c0.18 -0.18 0.4 -0.36 0.54 -0.58 c-0.2 0.16 -0.42 0.34 -0.54 0.58 z M11.079999999999998 23.7 c0.02 -0.04 0.04 -0.08 0.08 -0.12 c-0.1 -0.02 -0.14 0.1 -0.08 0.12 z M5.939999999999999 23.82 c0.06 0.02 0.1 -0.08 0.06 -0.1 c0 0.06 -0.08 0.04 -0.06 0.1 z M10.979999999999999 23.9 c0.08 -0.02 0.1 -0.1 0.12 -0.18 c-0.1 0 -0.08 0.12 -0.12 0.18 z M5.399999999999999 24.2 c0 -0.02 0.02 -0.04 0.04 -0.06 c-0.06 -0.02 -0.1 0.06 -0.04 0.06 z M10.959999999999999 24.259999999999998 c0 -0.04 0.1 -0.08 0.02 -0.1 c-0.02 0.02 -0.1 0.08 -0.02 0.1 z M5.459999999999999 24.32 c0.04 0.08 0.06 -0.08 0 0 l0 0 z M10.879999999999999 24.46 c0.06 0.02 0.08 -0.02 0.08 -0.08 c-0.06 -0.02 -0.08 0.02 -0.08 0.08 z M5.299999999999999 24.54 c0.02 0.02 -0.02 0 0 0 l0 0 z M4.979999999999999 24.62 c0.08 0 0.1 -0.04 0.12 -0.08 c-0.06 0 -0.12 0 -0.12 0.08 z M10.86 24.64 c0 -0.06 0.06 -0.04 0.06 -0.1 c-0.08 -0.02 -0.12 0.08 -0.06 0.1 z M5.199999999999999 24.64 c0.02 0.02 -0.02 -0.02 0 0 l0 0 z M4.839999999999999 24.88 c0 -0.1 0.12 -0.1 0.12 -0.22 c-0.08 0.02 -0.18 0.14 -0.12 0.22 z M10.719999999999999 25.04 c0.12 0 0.12 -0.22 0.1 -0.28 c-0.06 0.06 -0.04 0.22 -0.1 0.28 z M4.519999999999999 25.42 c0.1 -0.08 0.14 -0.24 0.28 -0.3 c0 0.04 -0.02 0.06 -0.04 0.06 c0.12 0.02 0.08 -0.2 0.04 -0.2 c-0.06 0.18 -0.3 0.26 -0.28 0.44 z M4.479999999999999 25.259999999999998 c0.06 0.02 0.14 -0.08 0.08 -0.1 c-0.02 0.06 -0.1 0.02 -0.08 0.1 z M10.739999999999998 25.4 c-0.04 -0.08 0.02 -0.08 0.02 -0.16 c-0.08 0 0 -0.02 -0.02 -0.08 c-0.12 0.02 -0.12 0.24 0 0.24 z M10.62 25.58 c0.02 -0.08 0.04 -0.04 0.1 -0.04 c0.02 -0.08 -0.04 -0.08 -0.1 -0.08 c0.02 0.04 -0.06 0.1 0 0.12 z M4.239999999999998 25.84 c0.08 -0.08 0.2 -0.26 0.2 -0.36 c-0.06 0.14 -0.2 0.18 -0.2 0.36 z M4.239999999999998 25.62 c0.02 0.02 -0.02 0 0 0 l0 0 z M10.559999999999999 25.66 c0.02 0.14 -0.02 0.12 -0.06 0.22 c0.12 -0.04 0.02 0.04 0.08 0.08 c0.02 -0.1 0.12 -0.28 0.04 -0.36 c0 0.04 -0.02 0.08 -0.06 0.06 z M4.019999999999999 25.9 l0.06 0 l0 -0.04 l-0.06 0 l0 0.04 z M10.7 25.94 l0.04 0 l0 -0.06 l-0.04 0 l0 0.06 z M3.919999999999999 26.08 c0.02 -0.04 0.06 -0.08 0.08 -0.12 c-0.06 0 -0.12 0.1 -0.08 0.12 z M4.079999999999999 26 l0.06 0 c0 -0.04 -0.02 -0.06 -0.06 -0.04 l0 0.04 z M10.499999999999998 26.08 c-0.14 0.02 -0.02 0.16 -0.1 0.22 c0.12 -0.04 0.1 -0.18 0.16 -0.28 c-0.06 0 -0.06 -0.06 -0.1 -0.06 c-0.02 0.08 0.02 0.08 0.04 0.12 z M10.68 26.08 c0 -0.04 0.04 -0.06 0 -0.08 c-0.02 0.04 -0.06 0.06 0 0.08 z M4.019999999999999 26.1 l0 0.04 l0.06 0 c0.02 -0.02 0.02 -0.04 -0.04 -0.06 c0 0.02 0 0.02 -0.02 0.02 z M10.579999999999998 26.34 c0.02 0.02 -0.02 0 0 0 l0 0 z M9.979999999999999 27.46 c0 -0.02 0.04 -0.04 0.04 -0.02 c-0.26 0.44 -0.42 1 -0.66 1.44 c0.44 -0.76 0.88 -1.68 1.04 -2.54 c-0.1 0.3 -0.32 0.84 -0.42 1.12 z M3.839999999999999 26.54 c0 -0.04 0.08 -0.12 0.02 -0.16 c-0.02 0.06 -0.14 0.12 -0.02 0.16 z M10.499999999999998 26.54 c0.06 0 0.08 -0.02 0.08 -0.08 c-0.08 -0.02 -0.06 0.06 -0.08 0.08 z M3.759999999999999 26.66 l0.08 0 c0 -0.04 -0.04 -0.06 -0.08 -0.06 l0 0.06 z M3.719999999999999 26.92 c-0.02 -0.06 -0.04 -0.1 -0.1 -0.1 c0 0.06 0.04 0.08 0.1 0.1 z M3.5199999999999996 27.04 c0.06 0 0.08 0 0.1 -0.06 c-0.04 -0.02 -0.12 -0.02 -0.1 0.06 z M3.299999999999999 27.740000000000002 c0.1 0.02 0 -0.08 0 0 l0 0 z M9.899999999999999 28.02 c0 -0.02 0 -0.02 0.02 -0.02 c0 -0.04 0 -0.06 -0.04 -0.06 c0 0.04 0 0.08 0.02 0.08 z M9.799999999999999 28.240000000000002 c0.02 0.02 0 -0.02 0 0 l0 0 z M3.119999999999999 28.34 c0.1 0.02 0 -0.08 0 0 l0 0 z M3.0599999999999987 28.46 c0.06 0 0.08 -0.02 0.08 -0.08 c-0.08 -0.02 -0.06 0.06 -0.08 0.08 z M9.659999999999998 28.48 l0.06 0 l0 -0.06 l-0.06 0 l0 0.06 z M9.639999999999999 28.619999999999997 c-0.08 0.02 -0.08 0.1 -0.12 0.16 c0.08 0 0.12 -0.06 0.12 -0.16 c0.04 -0.02 0 -0.02 0 0 z M9.899999999999999 28.84 c0.08 0 0.06 -0.08 0.1 -0.1 c-0.06 0 -0.1 0.04 -0.1 0.1 z M9.2 29.14 c0.08 0 0.14 -0.14 0.1 -0.18 c-0.02 0.06 -0.1 0.08 -0.1 0.18 z M9.419999999999998 29.060000000000002 c0 -0.06 0.02 -0.06 0.02 -0.1 c-0.08 -0.02 -0.08 0.08 -0.02 0.1 z M9.259999999999998 29.240000000000002 c0.06 0.02 0.14 -0.08 0.06 -0.12 c0 0.06 -0.08 0.06 -0.06 0.12 z M8.899999999999999 29.84 c0.14 -0.12 0.34 -0.4 0.3 -0.54 z M8.479999999999999 29.7 c0.08 0.02 0.16 -0.12 0.06 -0.12 c0.02 0.08 -0.08 0.04 -0.06 0.12 z M9.379999999999999 29.7 l0 0.04 l0.04 0 c0 0 0 -0.02 0.02 -0.02 l0 -0.04 l-0.04 0 c0 0.02 0 0.02 -0.02 0.02 z M2.799999999999999 30.1 l0 0.06 c0.06 0.04 0.06 -0.08 0.02 -0.08 c0 0.02 0 0.04 -0.02 0.02 z M8.28 30.16 c0 -0.04 0.04 -0.06 0 -0.08 c-0.02 0.04 -0.06 0.06 0 0.08 z M2.5799999999999983 30.28 c0.04 0 0.06 -0.02 0.08 -0.06 c-0.04 0 -0.06 0.02 -0.08 0.06 z M2.6799999999999997 30.259999999999998 l0 0.04 c0.06 0.04 0.06 -0.08 0.02 -0.08 c0 0.02 0 0.04 -0.02 0.04 z M8.059999999999999 30.34 l0 0.06 l0.04 0 c0 -0.02 0 -0.04 0.02 -0.02 l0 -0.06 l-0.04 0 c0 0.02 0 0.04 -0.02 0.02 z M2.6999999999999993 30.560000000000002 c0.1 0.02 0.1 -0.14 0 -0.12 c0.02 0.08 0.02 0.06 0 0.12 z M7.879999999999999 30.58 c0.06 0 0.16 -0.08 0.1 -0.12 c-0.02 0.06 -0.08 0.08 -0.1 0.12 z M7.799999999999999 30.68 c0.04 0.02 0.08 0 0.08 -0.04 c-0.04 0 -0.08 0 -0.08 0.04 z M7.499999999999999 31.060000000000002 c0.06 0.02 0.06 -0.04 0.08 -0.08 c-0.06 -0.02 -0.06 0.04 -0.08 0.08 z M7.219999999999999 31.34 c-0.12 0.06 -0.22 0.14 -0.26 0.26 c0.12 -0.04 0.16 -0.18 0.26 -0.26 c0.1 -0.06 0.18 -0.14 0.24 -0.24 c-0.12 0.04 -0.2 0.12 -0.24 0.24 z M6.879999999999999 31.64 c0.04 0.08 0.06 -0.08 0 0 l0 0 z M6.659999999999999 31.86 c0.02 -0.04 0.1 -0.04 0.1 -0.12 c-0.06 0 -0.16 0.08 -0.1 0.12 z M6.559999999999999 31.9 c0.02 0.02 0 0 0 0 l0 0 z M6.3199999999999985 32.34 c0.04 -0.04 0.04 -0.1 -0.04 -0.1 c0 0.06 0 0.1 0.04 0.1 z M11.1 20.9 c0 -0.08 0.1 0.02 0 0 l0 0 z M8.219999999999999 22.259999999999998 l0 0 c0.02 0.02 0 0 0 0 z M7.379999999999999 22.82 c0.06 0.02 -0.04 0.12 -0.1 0.12 c0.02 -0.06 0.08 -0.08 0.1 -0.12 z M3.4799999999999986 27.46 c0.02 -0.06 -0.08 0 -0.06 -0.08 c0.08 0.02 0.1 -0.12 0.12 -0.06 c-0.02 0.04 0.02 0.16 -0.06 0.14 z M10.44 27.88 l0 0 c0.02 -0.02 -0.02 -0.04 0 0 z M10.44 27.88 c-0.04 0 -0.02 0.02 -0.04 0.04 c0.02 0 0.02 -0.02 0.04 -0.04 z M3.2399999999999984 27.9 l0 0.02 c0.02 0 0 -0.02 0 -0.02 z M10.2 28.4 c0 -0.06 0.1 0.02 0 0 l0 0 z"/></g>
			</g>
		</svg>
	